<?xml version="1.0" encoding="UTF-8"?>
<svg id="Laag_2" data-name="Laag 2" xmlns="http://www.w3.org/2000/svg" viewBox="0 0 121.74 42">
  <defs>
    <style>
      .cls-1 {
        stroke-width: 2px;
      }

      .cls-1, .cls-2, .cls-3 {
        fill: none;
        stroke-miterlimit: 10;
      }

      .cls-1, .cls-3 {
        stroke: #fff;
      }

      .cls-2 {
        stroke: #f3484a;
        stroke-width: 12px;
      }

      .cls-3 {
        stroke-width: 14px;
      }
    </style>
  </defs>
  <g id="Laag_2-2" data-name="Laag 2">
    <path class="cls-3" d="m121.74,35c-12.17,0-12.17-28-24.35-28s-12.17,28-24.35,28S60.88,7,48.7,7s-12.18,28-24.35,28S12.18,7,0,7"/>
    <path class="cls-2" d="m121.74,35c-12.17,0-12.17-28-24.35-28s-12.17,28-24.35,28S60.88,7,48.7,7s-12.18,28-24.35,28S12.18,7,0,7"/>
    <line class="cls-1" x1="1.62" y1="15.16" x2="11.04" y2="5.75"/>
    <line class="cls-1" x1="6.1" y1="23.55" x2="16.02" y2="13.63"/>
    <line class="cls-1" x1="10.34" y1="32.05" x2="20.02" y2="22.38"/>
    <line class="cls-1" x1="15.6" y1="38.55" x2="52.9" y2="1.25"/>
    <line class="cls-1" x1="53.35" y1="1.38" x2="53.45" y2="1.91"/>
    <line class="cls-1" x1="24.67" y1="41.1" x2="40.97" y2="24.81"/>
    <line class="cls-1" x1="51.32" y1="15.68" x2="60.35" y2="6.65"/>
    <line class="cls-1" x1="55.39" y1="24.84" x2="65.26" y2="14.97"/>
    <line class="cls-1" x1="60.32" y1="34.19" x2="69.82" y2="24.69"/>
    <line class="cls-1" x1="68.4" y1="40.77" x2="105.67" y2="3.51"/>
    <line class="cls-1" x1="82.16" y1="13.16" x2="93.29" y2="2.03"/>
    <line class="cls-1" x1="102.61" y1="21" x2="112.31" y2="11.31"/>
    <line class="cls-1" x1="107.46" y1="31.81" x2="117.2" y2="22.07"/>
    <line class="cls-1" x1="23.99" y1="40.34" x2="24.78" y2="41.16"/>
    <line class="cls-1" x1="40.56" y1="25.22" x2="41.88" y2="23.9"/>
    <line class="cls-1" x1="41.77" y1="22.54" x2="42.66" y2="23.36"/>
    <line class="cls-1" x1="42.59" y1="21.62" x2="43.17" y2="22.13"/>
    <line class="cls-1" x1="81.85" y1="13.07" x2="82.79" y2="13.94"/>
    <line class="cls-1" x1="81.45" y1="14.33" x2="81.98" y2="14.82"/>
    <line class="cls-1" x1="80.94" y1="15.41" x2="81.23" y2="15.65"/>
    <line class="cls-1" x1="93.56" y1="1.14" x2="94.58" y2="2.16"/>
    <line class="cls-1" x1="94.55" y1="1.18" x2="95.02" y2="1.7"/>
  </g>
</svg>